<svg xmlns="http://www.w3.org/2000/svg" xmlns:xlink="http://www.w3.org/1999/xlink" width="500" zoomAndPan="magnify" viewBox="0 0 375 374.999991" height="500" preserveAspectRatio="xMidYMid meet" version="1.0"><defs><g/></defs><g fill="#ff3131" fill-opacity="1"><g transform="translate(-5.997161, 232.452591)"><g><path d="M 12.90625 -133.953125 C 16.375 -137.421875 20.507812 -139.15625 25.3125 -139.15625 C 30.125 -139.15625 34.257812 -137.421875 37.71875 -133.953125 C 41.1875 -130.492188 42.921875 -126.359375 42.921875 -121.546875 C 42.921875 -116.742188 41.1875 -112.609375 37.71875 -109.140625 C 34.257812 -105.679688 30.125 -103.953125 25.3125 -103.953125 C 20.507812 -103.953125 16.375 -105.679688 12.90625 -109.140625 C 9.445312 -112.609375 7.71875 -116.742188 7.71875 -121.546875 C 7.71875 -126.359375 9.445312 -130.492188 12.90625 -133.953125 Z M 10.0625 -86 L 10.0625 0 L 39.734375 0 L 39.734375 -86 Z M 10.0625 -86 "/></g></g></g><g fill="#38b6ff" fill-opacity="1"><g transform="translate(31.570374, 232.452591)"><g><path d="M 15.921875 -10.640625 C 7.878906 -19.421875 3.859375 -30.179688 3.859375 -42.921875 C 3.859375 -55.660156 7.878906 -66.441406 15.921875 -75.265625 C 23.972656 -84.097656 34.203125 -88.515625 46.609375 -88.515625 C 58.003906 -88.515625 67.394531 -84.941406 74.78125 -77.796875 L 74.78125 -144.1875 L 104.453125 -144.1875 L 104.453125 0 L 75.109375 0 L 75.109375 -9.71875 L 74.78125 -9.71875 C 67.394531 -1.5625 58.003906 2.515625 46.609375 2.515625 C 34.203125 2.515625 23.972656 -1.867188 15.921875 -10.640625 Z M 41.15625 -57.5 C 37.300781 -53.707031 35.375 -48.847656 35.375 -42.921875 C 35.375 -36.992188 37.21875 -32.15625 40.90625 -28.40625 C 44.59375 -24.664062 49.457031 -22.796875 55.5 -22.796875 C 61.3125 -22.796875 66.085938 -24.695312 69.828125 -28.5 C 73.566406 -32.300781 75.4375 -37.109375 75.4375 -42.921875 C 75.4375 -48.847656 73.507812 -53.707031 69.65625 -57.5 C 65.800781 -61.300781 61.082031 -63.203125 55.5 -63.203125 C 49.789062 -63.203125 45.007812 -61.300781 41.15625 -57.5 Z M 41.15625 -57.5 "/></g></g></g><g fill="#00bf63" fill-opacity="1"><g transform="translate(133.014758, 232.452591)"><g><path d="M 97.078125 -38.890625 L 34.703125 -38.890625 C 34.703125 -32.859375 36.65625 -28.390625 40.5625 -25.484375 C 44.476562 -22.578125 48.726562 -21.125 53.3125 -21.125 C 58.125 -21.125 61.925781 -21.765625 64.71875 -23.046875 C 67.507812 -24.335938 70.691406 -26.882812 74.265625 -30.6875 L 95.734375 -19.953125 C 86.785156 -4.972656 71.921875 2.515625 51.140625 2.515625 C 38.171875 2.515625 27.046875 -1.925781 17.765625 -10.8125 C 8.492188 -19.695312 3.859375 -30.398438 3.859375 -42.921875 C 3.859375 -55.441406 8.492188 -66.171875 17.765625 -75.109375 C 27.046875 -84.046875 38.171875 -88.515625 51.140625 -88.515625 C 64.773438 -88.515625 75.863281 -84.578125 84.40625 -76.703125 C 92.957031 -68.828125 97.234375 -57.566406 97.234375 -42.921875 C 97.234375 -40.910156 97.179688 -39.566406 97.078125 -38.890625 Z M 35.546875 -55.328125 L 68.234375 -55.328125 C 67.566406 -59.796875 65.804688 -63.226562 62.953125 -65.625 C 60.097656 -68.03125 56.4375 -69.234375 51.96875 -69.234375 C 47.050781 -69.234375 43.140625 -67.945312 40.234375 -65.375 C 37.328125 -62.8125 35.765625 -59.460938 35.546875 -55.328125 Z M 35.546875 -55.328125 "/></g></g></g><g fill="#5e17eb" fill-opacity="1"><g transform="translate(221.033565, 232.452591)"><g><path d="M 15.921875 -10.640625 C 7.878906 -19.421875 3.859375 -30.179688 3.859375 -42.921875 C 3.859375 -55.660156 7.878906 -66.441406 15.921875 -75.265625 C 23.972656 -84.097656 34.203125 -88.515625 46.609375 -88.515625 C 58.003906 -88.515625 67.394531 -84.941406 74.78125 -77.796875 L 74.78125 -86 L 104.453125 -86 L 104.453125 0 L 75.109375 0 L 75.109375 -9.71875 L 74.78125 -9.71875 C 67.394531 -1.5625 58.003906 2.515625 46.609375 2.515625 C 34.203125 2.515625 23.972656 -1.867188 15.921875 -10.640625 Z M 41.15625 -57.5 C 37.300781 -53.707031 35.375 -48.847656 35.375 -42.921875 C 35.375 -36.992188 37.21875 -32.15625 40.90625 -28.40625 C 44.59375 -24.664062 49.457031 -22.796875 55.5 -22.796875 C 61.3125 -22.796875 66.085938 -24.695312 69.828125 -28.5 C 73.566406 -32.300781 75.4375 -37.109375 75.4375 -42.921875 C 75.4375 -48.847656 73.507812 -53.707031 69.65625 -57.5 C 65.800781 -61.300781 61.082031 -63.203125 55.5 -63.203125 C 49.789062 -63.203125 45.007812 -61.300781 41.15625 -57.5 Z M 41.15625 -57.5 "/></g></g></g><g fill="#ff914d" fill-opacity="1"><g transform="translate(322.477955, 232.452591)"><g><path d="M 29.171875 -35.875 C 34.535156 -35.875 39.085938 -34 42.828125 -30.25 C 46.578125 -26.507812 48.453125 -21.957031 48.453125 -16.59375 C 48.453125 -11.34375 46.578125 -6.84375 42.828125 -3.09375 C 39.085938 0.644531 34.535156 2.515625 29.171875 2.515625 C 23.921875 2.515625 19.421875 0.644531 15.671875 -3.09375 C 11.929688 -6.84375 10.0625 -11.34375 10.0625 -16.59375 C 10.0625 -21.957031 11.929688 -26.507812 15.671875 -30.25 C 19.421875 -34 23.921875 -35.875 29.171875 -35.875 Z M 29.171875 -35.875 "/></g></g></g><g fill="#000000" fill-opacity="1"><g transform="translate(134.022172, 269.782784)"><g><path d="M 2.9375 -21.875 L 14.203125 -21.875 L 14.203125 -19.75 L 5.21875 -19.75 L 5.21875 -11.75 L 12.078125 -11.75 L 12.078125 -9.640625 L 5.21875 -9.640625 L 5.21875 0 L 2.9375 0 Z M 2.9375 -21.875 "/></g></g></g><g fill="#000000" fill-opacity="1"><g transform="translate(159.336803, 269.782784)"><g><path d="M 2.9375 -21.875 L 5.21875 -21.875 L 5.21875 0 L 2.9375 0 Z M 4.046875 -24.953125 C 3.609375 -24.953125 3.242188 -25.101562 2.953125 -25.40625 C 2.660156 -25.707031 2.515625 -26.078125 2.515625 -26.515625 C 2.515625 -26.953125 2.664062 -27.320312 2.96875 -27.625 C 3.269531 -27.925781 3.640625 -28.078125 4.078125 -28.078125 C 4.515625 -28.078125 4.878906 -27.925781 5.171875 -27.625 C 5.460938 -27.320312 5.609375 -26.953125 5.609375 -26.515625 C 5.609375 -26.078125 5.457031 -25.707031 5.15625 -25.40625 C 4.851562 -25.101562 4.484375 -24.953125 4.046875 -24.953125 Z M 4.046875 -24.953125 "/></g></g></g><g fill="#000000" fill-opacity="1"><g transform="translate(177.302132, 269.782784)"><g><path d="M 2.9375 -21.875 L 5.21875 -21.875 L 5.21875 -11.828125 L 14.171875 -21.875 L 17.015625 -21.875 L 7.671875 -11.390625 L 17.4375 0 L 14.40625 0 L 5.21875 -10.71875 L 5.21875 0 L 2.9375 0 Z M 2.9375 -21.875 "/></g></g></g><g fill="#000000" fill-opacity="1"><g transform="translate(204.707236, 269.782784)"><g><path d="M 2.9375 -21.875 L 5.21875 -21.875 L 5.21875 0 L 2.9375 0 Z M 4.046875 -24.953125 C 3.609375 -24.953125 3.242188 -25.101562 2.953125 -25.40625 C 2.660156 -25.707031 2.515625 -26.078125 2.515625 -26.515625 C 2.515625 -26.953125 2.664062 -27.320312 2.96875 -27.625 C 3.269531 -27.925781 3.640625 -28.078125 4.078125 -28.078125 C 4.515625 -28.078125 4.878906 -27.925781 5.171875 -27.625 C 5.460938 -27.320312 5.609375 -26.953125 5.609375 -26.515625 C 5.609375 -26.078125 5.457031 -25.707031 5.15625 -25.40625 C 4.851562 -25.101562 4.484375 -24.953125 4.046875 -24.953125 Z M 4.046875 -24.953125 "/></g></g></g><g fill="#000000" fill-opacity="1"><g transform="translate(222.672561, 269.782784)"><g><path d="M 2.9375 -21.875 L 8.15625 -21.875 C 9.25 -21.875 10.257812 -21.71875 11.1875 -21.40625 C 12.113281 -21.09375 12.90625 -20.644531 13.5625 -20.0625 C 14.226562 -19.488281 14.742188 -18.804688 15.109375 -18.015625 C 15.484375 -17.234375 15.671875 -16.378906 15.671875 -15.453125 C 15.671875 -14.679688 15.550781 -13.960938 15.3125 -13.296875 C 15.070312 -12.640625 14.734375 -12.046875 14.296875 -11.515625 C 13.867188 -10.984375 13.347656 -10.523438 12.734375 -10.140625 C 12.128906 -9.753906 11.46875 -9.46875 10.75 -9.28125 L 16.984375 0 L 14.234375 0 L 8.15625 -9.015625 L 5.21875 -9.015625 L 5.21875 0 L 2.9375 0 Z M 8.15625 -11.140625 C 9.726562 -11.140625 10.992188 -11.53125 11.953125 -12.3125 C 12.910156 -13.09375 13.390625 -14.148438 13.390625 -15.484375 C 13.390625 -16.785156 12.910156 -17.820312 11.953125 -18.59375 C 10.992188 -19.363281 9.726562 -19.75 8.15625 -19.75 L 5.21875 -19.75 L 5.21875 -11.140625 Z M 8.15625 -11.140625 "/></g></g></g></svg>